<?xml version="1.0" encoding="utf-8"?>
<!-- Generator: Adobe Illustrator 16.0.0, SVG Export Plug-In . SVG Version: 6.00 Build 0)  -->
<!DOCTYPE svg PUBLIC "-//W3C//DTD SVG 1.1//EN" "http://www.w3.org/Graphics/SVG/1.1/DTD/svg11.dtd">
<svg version="1.1" xmlns="http://www.w3.org/2000/svg" xmlns:xlink="http://www.w3.org/1999/xlink" x="0px" y="0px" width="960px"
	 height="560px" viewBox="0 0 960 560" enable-background="new 0 0 960 560" xml:space="preserve">
<g id="Layer_2">
</g>
<g id="Layer_1">
	<rect y="73.214" fill="none" width="960" height="413.571"/>
	<g>
		<path fill="#FFFFFF" d="M254.68,262.385c14.714,0,22.213,7.64,26.316,17.544l-13.724,5.235c-1.698-6.791-6.084-10.895-13.3-10.895
			c-10.612,0-15.281,10.329-15.281,21.506c0,11.037,4.386,21.365,15.422,21.365c7.499,0,10.895-4.386,13.159-10.188l14.007,5.377
			c-5.094,9.338-12.592,16.837-26.883,16.837c-19.101,0-31.269-13.3-31.269-33.392C222.986,275.826,235.154,262.385,254.68,262.385z
			"/>
		<path fill="#FFFFFF" d="M344.808,327.47h-14.432v-9.48c-3.82,6.509-9.904,11.178-19.667,11.178
			c-12.026,0-22.072-7.074-22.072-21.223v-43.862h15.139v40.183c0,9.055,5.66,12.592,11.46,12.592
			c7.357,0,14.432-6.508,14.432-19.101v-33.533h15.139V327.47z"/>
		<path fill="#FFFFFF" d="M502.284,313.604c-4.952,9.479-13.725,15.705-27.024,15.705c-19.384,0-31.41-13.441-31.41-33.533
			c0-19.949,12.31-33.249,30.845-33.249c20.374,0,29.854,15.422,29.854,32.684v4.245h-45.276
			c0.425,9.479,4.528,18.535,15.847,18.535c7.782,0,11.461-3.962,14.008-9.48L502.284,313.604z M459.555,289.268h29.713
			c-0.425-10.046-6.226-15.847-14.715-15.847C465.639,273.421,460.403,280.071,459.555,289.268z"/>
		<path fill="#FFFFFF" d="M513.745,264.083h14.573v9.621c3.679-6.508,10.046-11.319,19.95-11.319
			c12.31,0,22.496,7.074,22.496,21.365v43.72h-15.28v-40.183c0-9.056-5.942-12.593-11.744-12.593
			c-7.64,0-14.715,6.509-14.715,19.101v33.533h-15.28V264.083z"/>
		<path fill="#FFFFFF" d="M610.665,262.385c14.715,0,22.213,7.64,26.316,17.544l-13.725,5.235
			c-1.697-6.791-6.084-10.895-13.3-10.895c-10.611,0-15.28,10.329-15.28,21.506c0,11.037,4.386,21.365,15.422,21.365
			c7.499,0,10.895-4.386,13.158-10.188l14.008,5.377c-5.094,9.338-12.593,16.837-26.883,16.837c-19.102,0-31.27-13.3-31.27-33.392
			C578.972,275.826,590.998,262.385,610.665,262.385z"/>
		<path fill="#FFFFFF" d="M737.297,246.68c3.962,0,7.216,1.839,9.056,3.679l4.669-12.593c-3.679-2.264-9.621-3.537-15.281-3.537
			c-10.895,0-22.638,5.942-22.638,23.628v6.367H687.21c0,0-14.148,38.626-16.412,46.267h-0.142
			c-2.547-7.641-16.696-46.267-16.696-46.267h-15.563l24.902,63.528l-10.471,26.601h14.856l29.854-78.951h15.705v52.209h15.139
			v-52.209h11.461l4.245-11.178h-15.706v-6.508C728.383,249.792,732.062,246.68,737.297,246.68z"/>
		<path fill="#FFFFFF" d="M786.96,319.263c-4.104,5.943-10.188,9.904-20.233,9.904c-12.733,0-21.224-6.933-21.224-18.11
			c0-16.979,19.525-22.072,41.174-22.072v-3.961c0-6.65-3.679-11.32-11.603-11.32c-8.064,0-11.885,4.528-12.026,9.904l-14.715-2.121
			c1.273-12.452,13.3-19.102,27.308-19.102c15.28,0,25.892,7.782,25.892,23.063v33.392c0,3.82,0.708,6.226,1.415,8.631h-14.715
			C787.667,326.338,786.96,322.801,786.96,319.263z M786.677,304.124v-5.235c-15.705,0-26.176,2.972-26.176,11.319
			c0,5.094,4.387,7.781,10.471,7.781C778.895,317.989,786.677,312.896,786.677,304.124z"/>
		<path fill="#FFFFFF" d="M813.135,264.083h15.281v63.387h-15.281V264.083z"/>
		<path fill="#FFFFFF" d="M876.098,276.675c-1.698-0.849-3.679-1.273-5.519-1.273c-7.357,0-15.422,6.367-15.422,20.091v31.977
			h-15.281v-63.387h14.29v10.329c3.538-8.065,10.046-12.026,18.677-12.026c2.547,0,5.519,0.424,8.065,1.415L876.098,276.675z"/>
		<path fill="#FFFFFF" d="M392.631,276.675c-1.698-0.849-3.679-1.273-5.518-1.273c-7.357,0-15.422,6.367-15.422,20.091v31.977
			H356.41v-63.387H370.7v10.329c3.537-8.065,10.045-12.026,18.676-12.026c2.547,0,5.518,0.424,8.065,1.415L392.631,276.675z"/>
		<path fill="#FFFFFF" d="M439.464,276.675c-1.698-0.849-3.679-1.273-5.519-1.273c-7.357,0-15.422,6.367-15.422,20.091v31.977
			h-15.281v-63.387h14.291v10.329c3.538-8.065,10.045-12.026,18.676-12.026c2.547,0,5.519,0.424,8.065,1.415L439.464,276.675z"/>
		<ellipse fill="#FFFFFF" cx="820.742" cy="241.479" rx="9.763" ry="9.763"/>
	</g>
	<g>
		<circle fill="#589BB9" cx="125.5" cy="361.285" r="46.55"/>
		<circle fill="#589BB9" cx="191.292" cy="187.113" r="34.948"/>
		<circle fill="#589BB9" cx="154.364" cy="285.023" r="23.345"/>
		<circle fill="#589BB9" cx="170.777" cy="241.444" r="11.602"/>
	</g>
</g>
</svg>
