<?xml version="1.0" encoding="utf-8"?>
<!-- Generator: Adobe Illustrator 22.1.0, SVG Export Plug-In . SVG Version: 6.00 Build 0)  -->
<svg version="1.1" id="Layer_1" xmlns="http://www.w3.org/2000/svg" xmlns:xlink="http://www.w3.org/1999/xlink" x="0px" y="0px"
	 viewBox="0 0 818 276" style="enable-background:new 0 0 818 276;" xml:space="preserve">
<style type="text/css">
	.st0{fill:none;}
	.st1{fill:#FFFFFF;}
	.st2{fill:#589BB9;}
</style>
<g id="Layer_2_1_">
</g>
<g id="Layer_1_1_">
	<rect x="-71" y="-68.8" class="st0" width="960" height="413.6"/>
	<g>
		<path class="st1" d="M183.7,120.4c14.7,0,22.2,7.6,26.3,17.5l-13.7,5.2c-1.7-6.8-6.1-10.9-13.3-10.9c-10.6,0-15.3,10.3-15.3,21.5
			c0,11,4.4,21.4,15.4,21.4c7.5,0,10.9-4.4,13.2-10.2l14,5.4c-5.1,9.3-12.6,16.8-26.9,16.8c-19.1,0-31.3-13.3-31.3-33.4
			C152,133.8,164.2,120.4,183.7,120.4z"/>
		<path class="st1" d="M273.8,185.5h-14.4V176c-3.8,6.5-9.9,11.2-19.7,11.2c-12,0-22.1-7.1-22.1-21.2v-43.9h15.1v40.2
			c0,9.1,5.7,12.6,11.5,12.6c7.4,0,14.4-6.5,14.4-19.1v-33.5h15.1L273.8,185.5L273.8,185.5z"/>
		<path class="st1" d="M431.3,171.6c-5,9.5-13.7,15.7-27,15.7c-19.4,0-31.4-13.4-31.4-33.5c0-19.9,12.3-33.2,30.8-33.2
			c20.4,0,29.9,15.4,29.9,32.7v4.2h-45.3c0.4,9.5,4.5,18.5,15.8,18.5c7.8,0,11.5-4,14-9.5L431.3,171.6z M388.6,147.3h29.7
			c-0.4-10-6.2-15.8-14.7-15.8C394.6,131.4,389.4,138.1,388.6,147.3z"/>
		<path class="st1" d="M442.7,122.1h14.6v9.6c3.7-6.5,10-11.3,20-11.3c12.3,0,22.5,7.1,22.5,21.4v43.7h-15.3v-40.2
			c0-9.1-5.9-12.6-11.7-12.6c-7.6,0-14.7,6.5-14.7,19.1v33.5h-15.3L442.7,122.1L442.7,122.1z"/>
		<path class="st1" d="M539.7,120.4c14.7,0,22.2,7.6,26.3,17.5l-13.7,5.2c-1.7-6.8-6.1-10.9-13.3-10.9c-10.6,0-15.3,10.3-15.3,21.5
			c0,11,4.4,21.4,15.4,21.4c7.5,0,10.9-4.4,13.2-10.2l14,5.4c-5.1,9.3-12.6,16.8-26.9,16.8c-19.1,0-31.3-13.3-31.3-33.4
			C508,133.8,520,120.4,539.7,120.4z"/>
		<path class="st1" d="M666.3,104.7c4,0,7.2,1.8,9.1,3.7l4.7-12.6c-3.7-2.3-9.6-3.5-15.3-3.5c-10.9,0-22.6,5.9-22.6,23.6v6.4h-25.9
			c0,0-14.1,38.6-16.4,46.3h-0.1c-2.5-7.6-16.7-46.3-16.7-46.3h-15.6l24.9,63.5l-10.5,26.6h14.9l29.9-79h15.7v52.2h15.1v-52.2h11.5
			l4.2-11.2h-15.7v-6.5C657.4,107.8,661.1,104.7,666.3,104.7z"/>
		<path class="st1" d="M716,177.3c-4.1,5.9-10.2,9.9-20.2,9.9c-12.7,0-21.2-6.9-21.2-18.1c0-17,19.5-22.1,41.2-22.1v-4
			c0-6.6-3.7-11.3-11.6-11.3c-8.1,0-11.9,4.5-12,9.9l-14.7-2.1c1.3-12.5,13.3-19.1,27.3-19.1c15.3,0,25.9,7.8,25.9,23.1v33.4
			c0,3.8,0.7,6.2,1.4,8.6h-14.7C716.7,184.3,716,180.8,716,177.3z M715.7,162.1v-5.2c-15.7,0-26.2,3-26.2,11.3
			c0,5.1,4.4,7.8,10.5,7.8C707.9,176,715.7,170.9,715.7,162.1z"/>
		<path class="st1" d="M742.1,122.1h15.3v63.4h-15.3V122.1z"/>
		<path class="st1" d="M805.1,134.7c-1.7-0.8-3.7-1.3-5.5-1.3c-7.4,0-15.4,6.4-15.4,20.1v32h-15.3v-63.4h14.3v10.3
			c3.5-8.1,10-12,18.7-12c2.5,0,5.5,0.4,8.1,1.4L805.1,134.7z"/>
		<path class="st1" d="M321.6,134.7c-1.7-0.8-3.7-1.3-5.5-1.3c-7.4,0-15.4,6.4-15.4,20.1v32h-15.3v-63.4h14.3v10.3
			c3.5-8.1,10-12,18.7-12c2.5,0,5.5,0.4,8.1,1.4L321.6,134.7z"/>
		<path class="st1" d="M368.5,134.7c-1.7-0.8-3.7-1.3-5.5-1.3c-7.4,0-15.4,6.4-15.4,20.1v32h-15.3v-63.4h14.3v10.3
			c3.5-8.1,10-12,18.7-12c2.5,0,5.5,0.4,8.1,1.4L368.5,134.7z"/>
		<ellipse class="st1" cx="749.7" cy="99.5" rx="9.8" ry="9.8"/>
	</g>
	<g>
		<circle class="st2" cx="54.5" cy="219.3" r="46.5"/>
		<circle class="st2" cx="120.3" cy="45.1" r="34.9"/>
		<circle class="st2" cx="83.4" cy="143" r="23.3"/>
		<circle class="st2" cx="99.8" cy="99.4" r="11.6"/>
	</g>
</g>
</svg>
